# xmcd CD Database Entry
#
# Track frame offsets:
# 150
# 17697
# 35412
# 54260
# 67777
# 86205
# 111380
# 131752
# 151490
#
# Disc length: 2286 seconds
#
# Revision: 4
# Processed by: cddbd v1.4PL0 Copyright (c) Steve Scherf et al.
# Submitted via: tcd 2.0b
#
DISCID=7108ec09
DTITLE=Tracy Nelson, Mother Earth - Poor Man's Paradise
DYEAR=1900
DGENRE=
TTITLE0=Poor Man's Paradise
TTITLE1=Cruel Wind
TTITLE2=When I Need You Most Of All
TTITLE3=I Hate To Say Goodbye
TTITLE4=You and Me
TTITLE5=Jack's Waltz
TTITLE6=I Can't Seem To Care
TTITLE7=Going Back To Tennessee
TTITLE8=Whatever I Am, You Made Me
EXTD=
EXTT0=
EXTT1=
EXTT2=
EXTT3=
EXTT4=
EXTT5=
EXTT6=
EXTT7=
EXTT8=
PLAYORDER=
